<?xml version="1.0" encoding="UTF-8" standalone="no"?>
<!DOCTYPE svg PUBLIC "-//W3C//DTD SVG 1.1//EN" "http://www.w3.org/Graphics/SVG/1.1/DTD/svg11.dtd">
<svg width="100%" height="100%" viewBox="0 0 212 44" version="1.1" xmlns="http://www.w3.org/2000/svg" xmlns:xlink="http://www.w3.org/1999/xlink" xml:space="preserve" xmlns:serif="http://www.serif.com/" style="fill-rule:evenodd;clip-rule:evenodd;stroke-linejoin:round;stroke-miterlimit:2;">
    <g transform="matrix(1,0,0,1,-1134.53,-1732.34)">
        <g transform="matrix(1,0,0,1,1134.53,1732.34)">
            <g transform="matrix(1,0,0,1,2.5205,2.7297)">
                <path d="M0,37.74C-1.681,35.921 -2.521,33.31 -2.521,29.91L-2.521,7.83C-2.521,4.43 -1.681,1.821 0,-0C1.68,-1.82 4.119,-2.73 7.319,-2.73C10.52,-2.73 12.959,-1.82 14.64,-0C16.319,1.821 17.16,4.43 17.16,7.83L17.16,11.43L10.92,11.43L10.92,7.41C10.92,4.65 9.779,3.27 7.5,3.27C5.22,3.27 4.08,4.65 4.08,7.41L4.08,30.39C4.08,33.111 5.22,34.47 7.5,34.47C9.779,34.47 10.92,33.111 10.92,30.39L10.92,22.17L7.619,22.17L7.619,16.17L17.16,16.17L17.16,29.91C17.16,33.31 16.319,35.921 14.64,37.74C12.959,39.56 10.52,40.47 7.319,40.47C4.119,40.47 1.68,39.56 0,37.74" style="fill:white;fill-rule:nonzero;"/>
            </g>
        </g>
        <g transform="matrix(1,0,0,1,1134.53,1732.34)">
            <g transform="matrix(1,0,0,1,26.3389,42.5996)">
                <path d="M0,-42L18,-42L18,-36L6.601,-36L6.601,-24.899L15.66,-24.899L15.66,-18.899L6.601,-18.899L6.601,-6L18,-6L18,0L0,0L0,-42Z" style="fill:white;fill-rule:nonzero;"/>
            </g>
        </g>
        <g transform="matrix(1,0,0,1,1134.53,1732.34)">
            <g transform="matrix(1,0,0,1,50.5186,42.5996)">
                <path d="M0,-42L8.281,-42L14.701,-16.859L14.82,-16.859L14.82,-42L20.701,-42L20.701,0L13.92,0L6,-30.66L5.881,-30.66L5.881,0L0,0L0,-42Z" style="fill:white;fill-rule:nonzero;"/>
            </g>
        </g>
        <g transform="matrix(1,0,0,1,1134.53,1732.34)">
            <g transform="matrix(1,0,0,1,0,-0.0018)">
                <rect x="78.538" y="0.601" width="6.6" height="42" style="fill:white;"/>
            </g>
        </g>
        <g transform="matrix(1,0,0,1,1134.53,1732.34)">
            <g transform="matrix(1,0,0,1,90.7178,42.5996)">
                <path d="M0,-42L6.66,-42L10.98,-9.42L11.1,-9.42L15.42,-42L21.48,-42L15.119,0L6.359,0L0,-42Z" style="fill:white;fill-rule:nonzero;"/>
            </g>
        </g>
        <g transform="matrix(1,0,0,1,1134.53,1732.34)">
            <g transform="matrix(1,0,0,1,117.776,42.5996)">
                <path d="M0,-42L18,-42L18,-36L6.601,-36L6.601,-24.899L15.66,-24.899L15.66,-18.899L6.601,-18.899L6.601,-6L18,-6L18,0L0,0L0,-42Z" style="fill:white;fill-rule:nonzero;"/>
            </g>
        </g>
        <g transform="matrix(1,0,0,1,1134.53,1732.34)">
            <g transform="matrix(1,0,0,1,150.956,24.5996)">
                <path d="M0,-6C1.32,-6 2.311,-6.339 2.971,-7.02C3.63,-7.699 3.96,-8.84 3.96,-10.439L3.96,-13.68C3.96,-15.199 3.689,-16.299 3.15,-16.979C2.609,-17.659 1.76,-18 0.6,-18L-2.4,-18L-2.4,-6L0,-6ZM-9,-24L0.78,-24C4.18,-24 6.66,-23.209 8.221,-21.63C9.78,-20.049 10.561,-17.619 10.561,-14.34L10.561,-11.76C10.561,-7.399 9.12,-4.64 6.24,-3.479L6.24,-3.359C7.84,-2.88 8.971,-1.899 9.63,-0.42C10.29,1.061 10.62,3.041 10.62,5.521L10.62,12.9C10.62,14.101 10.659,15.07 10.74,15.811C10.82,16.551 11.02,17.28 11.34,18L4.62,18C4.38,17.32 4.22,16.681 4.141,16.08C4.06,15.48 4.02,14.4 4.02,12.84L4.02,5.16C4.02,3.24 3.71,1.9 3.09,1.141C2.469,0.381 1.4,0 -0.12,0L-2.4,0L-2.4,18L-9,18L-9,-24Z" style="fill:white;fill-rule:nonzero;"/>
            </g>
        </g>
        <g transform="matrix(1,0,0,1,1134.53,1732.34)">
            <g transform="matrix(1,0,0,1,169.856,2.7297)">
                <path d="M0,37.74C-1.641,35.921 -2.461,33.31 -2.461,29.91L-2.461,27.511L3.779,27.511L3.779,30.39C3.779,33.111 4.92,34.47 7.199,34.47C8.319,34.47 9.17,34.14 9.75,33.48C10.329,32.82 10.619,31.751 10.619,30.27C10.619,28.511 10.219,26.961 9.42,25.62C8.619,24.28 7.14,22.671 4.979,20.79C2.26,18.39 0.359,16.22 -0.721,14.28C-1.801,12.341 -2.34,10.15 -2.34,7.71C-2.34,4.39 -1.5,1.821 0.18,-0C1.859,-1.82 4.299,-2.73 7.5,-2.73C10.659,-2.73 13.05,-1.82 14.67,-0C16.289,1.821 17.1,4.43 17.1,7.83L17.1,9.57L10.859,9.57L10.859,7.41C10.859,5.97 10.58,4.92 10.02,4.261C9.459,3.6 8.64,3.27 7.56,3.27C5.359,3.27 4.26,4.611 4.26,7.29C4.26,8.81 4.67,10.23 5.49,11.551C6.309,12.87 7.8,14.47 9.96,16.35C12.72,18.75 14.619,20.93 15.66,22.89C16.699,24.85 17.22,27.15 17.22,29.79C17.22,33.231 16.369,35.871 14.67,37.71C12.969,39.551 10.5,40.47 7.26,40.47C4.059,40.47 1.64,39.56 0,37.74" style="fill:white;fill-rule:nonzero;"/>
            </g>
        </g>
        <g transform="matrix(1,0,0,1,1134.53,1732.34)">
            <g transform="matrix(1,0,0,1,193.256,42.5996)">
                <path d="M0,-42L18,-42L18,-36L6.601,-36L6.601,-24.899L15.66,-24.899L15.66,-18.899L6.601,-18.899L6.601,-6L18,-6L18,0L0,0L0,-42Z" style="fill:white;fill-rule:nonzero;"/>
            </g>
        </g>
    </g>
</svg>
