<?xml version="1.0" encoding="UTF-8" standalone="no"?>
<!DOCTYPE svg PUBLIC "-//W3C//DTD SVG 1.1//EN" "http://www.w3.org/Graphics/SVG/1.1/DTD/svg11.dtd">
<svg width="100%" height="100%" viewBox="0 0 196 44" version="1.1" xmlns="http://www.w3.org/2000/svg" xmlns:xlink="http://www.w3.org/1999/xlink" xml:space="preserve" xmlns:serif="http://www.serif.com/" style="fill-rule:evenodd;clip-rule:evenodd;stroke-linejoin:round;stroke-miterlimit:2;">
    <g transform="matrix(1,0,0,1,-52.4598,-555.833)">
        <g transform="matrix(1,0,0,1,52.4598,598.434)">
            <path d="M0,-42L17.46,-42L17.46,-36L6.601,-36L6.601,-24.3L15.12,-24.3L15.12,-18.3L6.601,-18.3L6.601,0L0,0L0,-42Z" style="fill:white;fill-rule:nonzero;"/>
        </g>
        <g transform="matrix(1,0,0,1,85.8797,570.354)">
            <path d="M0,14.16L-2.94,-6.601L-3.06,-6.601L-5.94,14.16L0,14.16ZM-7.2,-13.92L1.74,-13.92L8.58,28.08L1.98,28.08L0.78,19.74L0.78,19.859L-6.72,19.859L-7.92,28.08L-14.04,28.08L-7.2,-13.92Z" style="fill:white;fill-rule:nonzero;"/>
        </g>
        <g transform="matrix(1,0,0,1,101.989,558.533)">
            <path d="M0,37.8C-1.66,36 -2.49,33.461 -2.49,30.18L-2.49,7.62C-2.49,4.341 -1.66,1.8 0,0C1.659,-1.8 4.069,-2.7 7.229,-2.7C10.39,-2.7 12.8,-1.8 14.46,0C16.119,1.8 16.95,4.341 16.95,7.62L16.95,12.061L10.71,12.061L10.71,7.2C10.71,4.601 9.609,3.3 7.41,3.3C5.21,3.3 4.11,4.601 4.11,7.2L4.11,30.66C4.11,33.221 5.21,34.5 7.41,34.5C9.609,34.5 10.71,33.221 10.71,30.66L10.71,24.24L16.95,24.24L16.95,30.18C16.95,33.461 16.119,36 14.46,37.8C12.8,39.601 10.39,40.5 7.229,40.5C4.069,40.5 1.659,39.601 0,37.8" style="fill:white;fill-rule:nonzero;"/>
        </g>
        <g transform="matrix(1,0,0,1,0,312.978)">
            <rect x="125.299" y="243.456" width="6.601" height="42" style="fill:white;"/>
        </g>
        <g transform="matrix(1,0,0,1,139.218,598.434)">
            <path d="M0,-42L6.601,-42L6.601,-6L17.46,-6L17.46,0L0,0L0,-42Z" style="fill:white;fill-rule:nonzero;"/>
        </g>
        <g transform="matrix(1,0,0,1,0,312.978)">
            <rect x="162.258" y="243.456" width="6.6" height="42" style="fill:white;"/>
        </g>
        <g transform="matrix(1,0,0,1,188.476,570.354)">
            <path d="M0,14.16L-2.939,-6.601L-3.06,-6.601L-5.939,14.16L0,14.16ZM-7.199,-13.92L1.74,-13.92L8.58,28.08L1.98,28.08L0.78,19.74L0.78,19.859L-6.72,19.859L-7.92,28.08L-14.039,28.08L-7.199,-13.92Z" style="fill:white;fill-rule:nonzero;"/>
        </g>
        <g transform="matrix(1,0,0,1,211.636,580.434)">
            <path d="M0,-6C1.32,-6 2.311,-6.34 2.971,-7.021C3.63,-7.7 3.96,-8.84 3.96,-10.44L3.96,-13.681C3.96,-15.2 3.69,-16.3 3.15,-16.98C2.61,-17.66 1.76,-18 0.601,-18L-2.399,-18L-2.399,-6L0,-6ZM-9,-24L0.78,-24C4.18,-24 6.66,-23.21 8.221,-21.63C9.78,-20.05 10.561,-17.619 10.561,-14.34L10.561,-11.76C10.561,-7.4 9.12,-4.64 6.24,-3.48L6.24,-3.36C7.84,-2.88 8.971,-1.899 9.63,-0.42C10.29,1.061 10.62,3.04 10.62,5.52L10.62,12.899C10.62,14.1 10.659,15.07 10.74,15.81C10.82,16.551 11.02,17.279 11.34,18L4.62,18C4.38,17.32 4.22,16.68 4.141,16.08C4.06,15.48 4.021,14.399 4.021,12.84L4.021,5.16C4.021,3.24 3.71,1.9 3.09,1.14C2.47,0.381 1.4,0 -0.12,0L-2.399,0L-2.399,18L-9,18L-9,-24Z" style="fill:white;fill-rule:nonzero;"/>
        </g>
        <g transform="matrix(1,0,0,1,234.256,592.434)">
            <path d="M0,-30L-6.899,-30L-6.899,-36L13.5,-36L13.5,-30L6.601,-30L6.601,6L0,6L0,-30Z" style="fill:white;fill-rule:nonzero;"/>
        </g>
    </g>
</svg>
